<svg viewBox="0 0 40 40" fill="none" xmlns="http://www.w3.org/2000/svg">
  <path fill-rule="evenodd" clip-rule="evenodd" d="M26.4892 14.9265C26.0555 14.8584 25.5638 14.9696 25.1282 15.1093C24.5909 15.2816 23.9637 15.5582 23.2867 15.9042C21.9292 16.5979 20.2969 17.609 18.6499 18.7499C15.3795 21.0154 11.9213 23.8835 10.416 25.9093C8.90903 27.9374 8.09755 30.2229 8.03339 32.3011C7.96932 34.3762 8.6562 36.3171 10.2381 37.4926C11.82 38.668 13.8766 38.7656 15.8449 38.1054C17.8162 37.4443 19.7704 36.0078 21.2773 33.9798C22.7826 31.9539 24.5307 27.8151 25.7561 24.0301C26.3733 22.124 26.8703 20.2693 27.1428 18.7694C27.2787 18.0213 27.3625 17.341 27.3724 16.7769C27.3805 16.3198 27.3451 15.8172 27.155 15.4217L27.0624 14.8504L26.4892 14.9265ZM20.1202 33.12C18.767 34.9411 17.0457 36.1822 15.3866 36.7387C14.4608 37.0492 13.5764 37.1418 12.7848 37.0219C13.2252 36.793 13.6918 36.4774 14.1675 36.1017C15.4866 35.0598 17.0101 33.4485 18.4438 31.519C19.8803 29.5858 22.0893 25.9458 23.9102 22.6822C24.4659 21.6863 24.9884 20.7201 25.4446 19.8423C25.1772 20.9806 24.813 22.263 24.3847 23.586C23.165 27.3531 21.4749 31.2967 20.1202 33.12ZM22.7505 17.8391C22.0414 18.5294 21.2668 19.3088 20.4734 20.1285C17.874 22.8137 15.0264 25.9791 13.5899 27.9123C12.1562 29.8418 11.0531 31.7655 10.4362 33.3292C10.2137 33.8931 10.0461 34.431 9.95404 34.9188C9.61074 34.1953 9.44412 33.3217 9.47426 32.3456C9.52827 30.5964 10.2199 28.5902 11.5731 26.7691C12.9278 24.9458 16.216 22.1897 19.4708 19.9349C20.6144 19.1427 21.7375 18.4237 22.7505 17.8391ZM17.2867 30.6592C15.9062 32.5172 14.4681 34.0273 13.274 34.9704C12.6727 35.4453 12.1662 35.75 11.7843 35.8957C11.5267 35.994 11.4016 35.9938 11.356 35.9883C11.3376 35.9462 11.3013 35.8265 11.3211 35.5516C11.3504 35.1438 11.496 34.5709 11.7771 33.8582C12.3355 32.4428 13.3665 30.63 14.747 28.7721C16.1248 26.9178 18.918 23.8079 21.5092 21.1311C22.7336 19.8662 23.9025 18.7088 24.8435 17.8367C24.28 18.9892 23.5091 20.4425 22.6514 21.9798C20.8361 25.2332 18.6645 28.805 17.2867 30.6592Z" fill="var(--color-primary, #1E1E1E)"/>
  <path d="M28.4831 16.7995C28.2935 17.0547 27.9329 17.1079 27.6777 16.9183L24.905 14.8581C24.6498 14.6684 24.5966 14.3078 24.7863 14.0526L32.512 3.65522C32.8913 3.14479 33.6125 3.03847 34.1229 3.41774L35.9713 4.7912C36.4818 5.17047 36.5881 5.89171 36.2088 6.40214L28.4831 16.7995Z" fill="var(--color-primary, #8B4513)"/>
  <path fill-rule="evenodd" clip-rule="evenodd" d="M28.8689 17.0862C28.521 17.5544 27.8593 17.6519 27.3911 17.304L24.6185 15.2438C24.1502 14.8959 24.0527 14.2343 24.4006 13.7661L32.1263 3.36868C32.6639 2.64524 33.6861 2.49454 34.4096 3.03209L36.258 4.40555C36.9814 4.9431 37.1321 5.96534 36.5946 6.68878L28.8689 17.0862ZM27.9643 16.5326C28.0065 16.564 28.0661 16.5552 28.0975 16.513L35.8232 6.1156C36.0442 5.81819 35.9822 5.39794 35.6848 5.17695L33.8364 3.80349C33.539 3.5825 33.1187 3.64445 32.8977 3.94186L25.172 14.3392C25.1407 14.3814 25.1495 14.4411 25.1917 14.4724L27.9643 16.5326Z" fill="var(--color-primary, #1E1E1E)"/>
  <path d="M12.3062 3.75L12.7683 5.98479C13.3485 8.79146 15.3412 10.9832 17.8931 11.6214L19.925 12.1295L17.8931 12.6377C15.3412 13.2759 13.3485 15.4676 12.7683 18.2743L12.3062 20.5091L11.8442 18.2743C11.2639 15.4676 9.27123 13.2759 6.71938 12.6377L4.6875 12.1295L6.71938 11.6214C9.27123 10.9832 11.2639 8.79146 11.8442 5.98479L12.3062 3.75Z" fill="var(--color-accent, #F6C123)"/>
  <path fill-rule="evenodd" clip-rule="evenodd" d="M12.3062 3.75L11.8443 5.98431C11.264 8.79099 9.27123 10.9832 6.71938 11.6214L4.6875 12.1295L6.71938 12.6377C9.27123 13.2759 11.2639 15.4676 11.8442 18.2743L12.3062 20.5091L12.7682 18.2748C13.3484 15.4681 15.3412 13.2759 17.8931 12.6377L19.925 12.1295L17.8931 11.6214C15.3412 10.9832 13.3485 8.79146 12.7683 5.98479L12.3062 3.75ZM12.3062 7.60203C11.5066 9.65286 9.97792 11.299 8.03643 12.1295C9.97792 12.9601 11.5066 14.6062 12.3062 16.657C13.1058 14.6062 14.6345 12.9601 16.576 12.1295C14.6345 11.299 13.1058 9.65286 12.3062 7.60203Z" fill="var(--color-accent, #1E1E1E)"/>
</svg>
